<?xml version="1.0"?>


<svg version="1.1" id="Logo" xmlns="http://www.w3.org/2000/svg" xmlns:xlink="http://www.w3.org/1999/xlink" x="0px" y="0px" width="612px" height="209.018px" viewBox="0 0 612 209.018" enable-background="new 0 0 612 209.018" xml:space="preserve">
<g>
	<polygon points="228.465,99.196 232.179,99.196 232.179,80.977 254.841,80.977 254.841,77.603 232.179,77.603 232.179,61.52 &#xA;		257.089,61.52 257.089,58.145 228.465,58.145 	"></polygon>
	<path d="M303.085,78.671c0-12.372-8.716-21.37-20.75-21.37c-12.09,0-20.809,8.998-20.809,21.37&#xA;		c0,12.372,8.719,21.369,20.809,21.369C294.369,100.04,303.085,91.042,303.085,78.671z M265.408,78.671&#xA;		c0-10.403,7.085-17.939,16.927-17.939c9.783,0,16.869,7.536,16.869,17.939c0,10.404-7.086,17.938-16.869,17.938&#xA;		C272.493,96.609,265.408,89.075,265.408,78.671z"></path>
	<path d="M339.349,84.238c0,8.098-4.725,12.372-12.933,12.372c-7.987,0-12.709-4.274-12.709-12.372V58.145h-3.714v26.093&#xA;		c0,10.067,6.018,15.802,16.423,15.802c10.569,0,16.645-5.735,16.645-15.802V58.145h-3.712V84.238z"></path>
	<polygon points="382.192,93.292 355.313,58.145 351.713,58.145 351.713,99.196 355.427,99.196 355.427,63.938 382.42,99.196 &#xA;		385.961,99.196 385.961,58.145 382.192,58.145 	"></polygon>
	<path d="M406.31,58.145h-11.698v41.051h11.811c14.002,0,23.618-8.266,23.618-20.357C430.04,66.525,420.369,58.145,406.31,58.145z&#xA;		 M406.422,95.822l-8.097-0.056V61.52h8.097c11.583,0,19.683,7.029,19.683,17.32C426.104,88.906,418.005,95.822,406.422,95.822z"></path>
	<path d="M449.325,58.145l-17.827,41.051h3.993l4.442-10.404h22.607l4.442,10.404h4.048l-17.77-41.051H449.325z M441.339,85.419&#xA;		l9.953-23.169l9.841,23.169H441.339z"></path>
	<polygon points="484.464,99.196 488.176,99.196 488.176,61.52 503.867,61.52 503.867,58.145 468.718,58.145 468.718,61.52 &#xA;		484.464,61.52 	"></polygon>
	<rect x="509.934" y="58.145" width="3.714" height="41.051"></rect>
	<path d="M541.312,57.301c-12.09,0-20.808,8.998-20.808,21.37c0,12.372,8.718,21.369,20.808,21.369&#xA;		c12.035,0,20.75-8.998,20.75-21.369C562.062,66.299,553.347,57.301,541.312,57.301z M541.312,96.609&#xA;		c-9.841,0-16.927-7.535-16.927-17.938c0-10.403,7.086-17.939,16.927-17.939c9.784,0,16.869,7.536,16.869,17.939&#xA;		C558.181,89.075,551.096,96.609,541.312,96.609z"></path>
	<polygon points="599.452,58.145 599.452,93.292 572.572,58.145 568.973,58.145 568.973,99.196 572.687,99.196 572.687,63.938 &#xA;		599.679,99.196 603.221,99.196 603.221,58.145 	"></polygon>
	<polygon points="228.465,154.713 232.179,154.713 232.179,136.492 254.841,136.492 254.841,133.119 232.179,133.119 &#xA;		232.179,117.035 257.089,117.035 257.089,113.66 228.465,113.66 	"></polygon>
	<rect x="263.326" y="113.66" width="3.714" height="41.053"></rect>
	<path d="M305.838,125.529c0-7.199-5.678-11.869-13.89-11.869h-16.253v41.053h3.714v-17.604h12.09l13.44,17.604h4.609&#xA;		l-13.889-17.996C301.677,135.424,305.838,131.207,305.838,125.529z M279.409,133.738v-16.703h12.539&#xA;		c5.905,0,10.065,3.15,10.065,8.494c0,5.002-4.105,8.209-10.008,8.209H279.409z"></path>
	<path d="M327.711,131.826c-5.905-1.576-11.474-3.207-11.474-8.27c0-4.609,4.388-7.307,10.854-7.307&#xA;		c3.654,0,8.097,1.18,11.695,3.203l1.181-3.373c-4.16-2.082-8.321-3.262-12.597-3.262c-9.222-0.059-15.012,3.936-15.012,10.797&#xA;		c0,7.982,7.535,9.953,13.832,11.641c6.299,1.629,11.697,3.486,11.697,8.492c0,5.621-5.118,8.377-11.248,8.377&#xA;		c-4.78,0-9.502-1.518-13.495-3.879l-1.405,3.26c4.722,2.529,9.222,4.051,14.845,4.051c8.267,0,15.183-4.162,15.183-11.754&#xA;		C341.768,135.932,334.515,133.625,327.711,131.826z"></path>
	<polygon points="346.263,117.035 362.006,117.035 362.006,154.713 365.718,154.713 365.718,117.035 381.409,117.035 &#xA;		381.409,113.66 346.263,113.66 	"></polygon>
	<path d="M65.09,48.198h1.807l38.326-38.326l94.637,94.637l-94.637,94.638l-94.637-94.638l46.937-46.936h7.952v69.987H57.56v0.482&#xA;		h24.133v-0.482h-7.914V91.938H90.77c12.547,0,12.547,8.013,12.547,14.094h0.481V91.749h7.979v69.983h-7.915v0.484h24.133v-0.484&#xA;		h-7.917v-35.619h16.991c12.55,0,12.55,8.014,12.55,14.096h0.481v-28.672h-0.481c0,6.08,0,14.094-12.55,14.094h-16.991V91.749&#xA;		h19.984c17.086,0,17.376,13.49,17.376,20.149h0.481V91.266h-54.122V77.363h-0.481c0,6.081,0,14.094-12.547,14.094H73.778V57.573&#xA;		H93.76c17.086,0,17.376,13.49,17.376,20.15h0.484V57.09H56.237l-0.025,0.031h-0.045L8.779,104.509l96.443,96.444l96.444-96.444&#xA;		L105.223,8.065L65.09,48.198z"></path>
	<polygon points="409.043,125.166 400.993,113.449 399.104,113.449 399.104,133.436 400.884,133.436 400.884,116.434 &#xA;		408.768,127.713 409.287,127.713 417.199,116.379 417.199,133.436 418.979,133.436 418.979,113.449 417.089,113.449 	"></polygon>
	<path d="M435.064,113.449l-8.679,19.986h1.944l2.162-5.066h11.006l2.162,5.066h1.972l-8.651-19.986H435.064z M431.178,126.727&#xA;		l4.845-11.279l4.792,11.279H431.178z"></path>
	<path d="M467.795,119.225c0-3.504-2.766-5.775-6.762-5.775h-7.912v19.986h1.808v-8.57h5.885l6.544,8.57h2.244l-6.762-8.76&#xA;		C465.771,124.043,467.795,121.99,467.795,119.225z M454.929,123.223v-8.131h6.104c2.875,0,4.899,1.531,4.899,4.133&#xA;		c0,2.438-1.997,3.998-4.872,3.998H454.929z"></path>
	<polygon points="491.77,113.449 489.44,113.449 478.271,125.166 478.271,113.449 476.438,113.449 476.438,133.436 478.271,133.436 &#xA;		478.271,127.52 481.804,123.852 490.18,133.436 492.48,133.436 483.062,122.512 	"></polygon>
	<polygon points="502.107,124.4 513.166,124.4 513.166,122.729 502.107,122.729 502.107,115.092 514.344,115.092 514.344,113.449 &#xA;		500.3,113.449 500.3,133.436 514.372,133.436 514.372,131.793 502.107,131.793 	"></polygon>
	<polygon points="521.725,115.092 529.392,115.092 529.392,133.436 531.198,133.436 531.198,115.092 538.836,115.092 &#xA;		538.836,113.449 521.725,113.449 	"></polygon>
	<rect x="546.848" y="113.449" width="1.807" height="19.986"></rect>
	<polygon points="572.77,130.561 559.684,113.449 557.932,113.449 557.932,133.436 559.738,133.436 559.738,116.27 572.879,133.436 &#xA;		574.604,133.436 574.604,113.449 572.77,113.449 	"></polygon>
	<path d="M592.99,125.029h5.968l0.027,5.885c-1.48,0.66-3.367,1.262-5.448,1.262c-5.01,0-8.623-3.287-8.623-8.596&#xA;		c0-5.504,3.669-8.871,8.815-8.871c2.051,0,4.242,0.629,5.857,1.561l0.602-1.615c-1.997-1.041-3.941-1.615-6.515-1.615&#xA;		c-6.324,0-10.704,4.023-10.677,10.541c-0.027,6.352,4.325,10.266,10.348,10.266c2.82,0,5.012-0.768,7.447-1.918v-8.541h-7.802&#xA;		V125.029z"></path>
</g>
</svg>
